<?xml version="1.0" encoding="UTF-8"?>
<svg version="1.1" xmlns="http://www.w3.org/2000/svg" width="256" height="256">
<path d="M0 0 C1.85035103 -0.01702469 1.85035103 -0.01702469 3.73808289 -0.03439331 C5.09204167 -0.03175038 6.44599985 -0.02877923 7.79995728 -0.0255127 C9.23612629 -0.03285792 10.6722894 -0.04144547 12.10844421 -0.05117798 C15.99905035 -0.07335587 19.88944445 -0.07632653 23.78010511 -0.07443047 C27.03296581 -0.07431058 30.28578188 -0.08288194 33.53863013 -0.09120798 C41.21577611 -0.11042887 48.89281336 -0.11333077 56.56997681 -0.10656738 C64.47834424 -0.09992825 72.38624506 -0.12278855 80.29451787 -0.15988111 C87.09473487 -0.19061403 93.89480205 -0.20193424 100.69508708 -0.1980443 C104.7519904 -0.19598039 108.8085306 -0.20140009 112.86536789 -0.22593689 C116.68233081 -0.24826113 120.49853715 -0.24628001 124.31550407 -0.22600937 C125.7118546 -0.22260919 127.10825663 -0.22764565 128.50453758 -0.24199295 C136.41015676 -0.31758548 142.73282959 -0.17760699 148.75161743 5.39440918 C152.89880648 10.16532421 154.87171293 14.11512781 154.8830452 20.51148129 C154.88688634 21.32799315 154.89072749 22.14450502 154.89468503 22.98575968 C154.89381855 23.87728866 154.89295207 24.76881765 154.89205933 25.68736267 C154.89503045 26.63872024 154.89800157 27.59007781 154.90106273 28.5702644 C154.90975186 31.76613076 154.91125815 34.96195967 154.91275024 38.15783691 C154.91737817 40.44585246 154.92240279 42.73386723 154.92779541 45.0218811 C154.94092163 51.24285565 154.94736451 57.4638194 154.95180607 63.68480563 C154.9547357 67.56908295 154.95884025 71.4533573 154.96331024 75.33763313 C154.97541748 86.09247346 154.98580073 96.84730992 154.98918533 107.60215664 C154.98951468 108.63423933 154.98951468 108.63423933 154.98985069 109.68717218 C154.99006896 110.37686536 154.99028724 111.06655855 154.99051213 111.77715153 C154.9909556 113.17471723 154.99140216 114.57228293 154.99185181 115.96984863 C154.99218395 117.00970816 154.99218395 117.00970816 154.99252281 118.07057495 C154.9964727 129.30902899 155.01393389 140.54741828 155.03721133 151.7858473 C155.0609179 163.32456007 155.07312876 174.8632311 155.07455325 186.40196949 C155.075603 192.8804743 155.08154711 199.35888769 155.09937286 205.83736992 C155.11580694 211.92846472 155.11803174 218.01939894 155.10923386 224.11050797 C155.10846105 226.34825761 155.11283811 228.58601573 155.12269211 230.82374382 C155.13533923 233.87417976 155.12957415 236.92404066 155.11911011 239.97447205 C155.13119471 241.30841945 155.13119471 241.30841945 155.14352345 242.66931528 C155.10552716 247.39226608 154.86372499 250.58730763 151.75161743 254.39440918 C147.65523519 257.12533067 144.56280937 257.20203185 139.75161743 256.39440918 C136.29969006 254.89448981 133.31759266 252.85998487 130.23208618 250.71862793 C129.34275894 250.12557861 128.4534317 249.5325293 127.53715515 248.92150879 C124.65755338 246.99435202 121.79857989 245.0387937 118.93911743 243.08190918 C116.9666984 241.75368891 114.99305854 240.42727983 113.01821899 239.10266113 C108.14492206 235.82716771 103.28773592 232.52870709 98.43588257 229.22155762 C94.50882245 226.54845292 90.56978699 223.89323079 86.63052368 221.23815918 C80.32115464 216.9807218 74.0286484 212.69943081 67.75161743 208.39440918 C61.31148684 211.82862801 55.23287142 215.62486798 49.20474243 219.73425293 C48.31285217 220.33766006 47.42096191 220.9410672 46.50204468 221.5627594 C43.66618434 223.4823177 40.83377148 225.40688782 38.00161743 227.33190918 C36.14899724 228.58812905 34.29613429 229.84399099 32.44302368 231.0994873 C31.52718506 231.72038239 30.61134644 232.34127747 29.66775513 232.98098755 C27.81821481 234.23262209 25.96689424 235.48162998 24.11380005 236.72799683 C19.37798807 239.91621793 14.6802774 243.14412558 10.03091431 246.45739746 C9.10002991 247.10841934 8.16914551 247.75944122 7.21005249 248.43019104 C5.44867584 249.66236736 3.69944538 250.91217376 1.96554565 252.182724 C-3.03427833 255.64269151 -6.81610942 257.06966088 -12.91482544 257.09568787 C-16.5137546 256.01414061 -17.9343639 254.34719923 -20.24838257 251.39440918 C-20.97905542 248.20880459 -20.91496595 245.09293722 -20.86984253 241.83607483 C-20.87623135 240.86823419 -20.88262017 239.90039355 -20.88920259 238.90322441 C-20.9044744 235.65710933 -20.88397595 232.41221046 -20.86361694 229.1661377 C-20.86711749 226.8401855 -20.8727753 224.51423569 -20.88043213 222.18829346 C-20.89469993 215.8679818 -20.87759808 209.54810417 -20.85414696 203.22783399 C-20.83609903 197.28738546 -20.83928282 191.34697584 -20.8416248 185.40650605 C-20.84531479 173.63408879 -20.82449207 161.86184035 -20.79037476 150.08947754 C-20.75729105 138.66951225 -20.74311521 127.24972417 -20.74935913 115.82971191 C-20.75684793 102.0651401 -20.74946865 88.30067275 -20.72770691 74.53611565 C-20.71952827 69.27986499 -20.71682423 64.02365341 -20.71839905 58.76739693 C-20.71927755 52.57775214 -20.70507063 46.38831934 -20.67917252 40.19873047 C-20.6720059 37.92593857 -20.66992946 35.65312412 -20.67329025 33.38032341 C-20.67700055 30.27989412 -20.66227245 27.18008499 -20.64279175 24.07972717 C-20.64811967 23.17846007 -20.6534476 22.27719298 -20.65893698 21.34861475 C-20.58854919 14.86348174 -19.25553113 10.72704129 -14.93588257 5.70690918 C-10.22741023 1.65543298 -6.19990655 0.02164359 0 0 Z " fill="#FB5859" transform="translate(61.248382568359375,-0.3944091796875)"/>
<path d="M0 0 C1.06992188 0.01353516 2.13984375 0.02707031 3.2421875 0.04101562 C5.87031511 0.07621376 8.49739194 0.12545307 11.125 0.1875 C10.5069751 0.49075195 9.8889502 0.79400391 9.25219727 1.10644531 C7.03696537 2.23223974 5.08171211 3.49020346 3.0625 4.9375 C2.39089844 5.40671875 1.71929687 5.8759375 1.02734375 6.359375 C-2.62447389 9.86871926 -4.0420213 13.62317814 -4.2245903 18.61313725 C-4.22807035 20.36640162 -4.21494475 22.11974721 -4.18865967 23.87281799 C-4.18628398 24.84221862 -4.1839083 25.81161925 -4.18146062 26.81039566 C-4.17001958 30.05555895 -4.13713381 33.30015198 -4.10449219 36.54516602 C-4.09218535 38.87287717 -4.08130557 41.20059625 -4.07174683 43.52832031 C-4.04871117 48.53912909 -4.0167472 53.54977438 -3.97823334 58.56048775 C-3.91860546 66.48045447 -3.88608339 74.40040851 -3.85870361 82.32054138 C-3.84894619 85.03185822 -3.83895068 87.74317414 -3.82884598 90.45448971 C-3.8263219 91.13198412 -3.82379782 91.80947853 -3.82119726 92.50750308 C-3.79197204 100.21262989 -3.75553283 107.91771844 -3.71679688 115.62280273 C-3.7132642 116.32687387 -3.70973152 117.03094501 -3.70609179 117.75635164 C-3.64821118 129.17579596 -3.5743731 140.59510228 -3.49733695 152.01443077 C-3.41889575 163.74299185 -3.36738652 175.47148207 -3.33839154 187.20026916 C-3.31717841 195.07717466 -3.26475428 202.95306818 -3.18955183 210.82963383 C-3.15014728 215.72465641 -3.13993919 220.61941244 -3.13812637 225.51457977 C-3.13139708 227.78787299 -3.11258648 230.06116666 -3.08093643 232.3342495 C-3.03949995 235.43346197 -3.04103087 238.52976969 -3.05340576 241.62916565 C-3.03096951 242.53266347 -3.00853326 243.43616129 -2.98541713 244.36703783 C-3.0716494 250.30136991 -3.0716494 250.30136991 -5.39368677 252.8626765 C-8.80168108 255.38679183 -11.66088557 256.88226068 -16 256.8125 C-16.80695312 256.82539063 -17.61390625 256.83828125 -18.4453125 256.8515625 C-22.13896603 255.84204305 -23.5234092 254.19807826 -25.875 251.1875 C-26.60506999 248.00170165 -26.54158446 244.88610589 -26.49645996 241.62916565 C-26.50284878 240.66132501 -26.5092376 239.69348437 -26.51582003 238.69631523 C-26.53109183 235.45020015 -26.51059338 232.20530128 -26.49023438 228.95922852 C-26.49373492 226.63327632 -26.49939273 224.30732651 -26.50704956 221.98138428 C-26.52131736 215.66107262 -26.50421551 209.34119499 -26.48076439 203.02092481 C-26.46271646 197.08047628 -26.46590025 191.14006666 -26.46824223 185.19959687 C-26.47193222 173.42717961 -26.4511095 161.65493117 -26.41699219 149.88256836 C-26.38390848 138.46260307 -26.36973265 127.04281499 -26.37597656 115.62280273 C-26.38346537 101.85823092 -26.37608608 88.09376357 -26.35432434 74.32920647 C-26.3461457 69.07295581 -26.34344166 63.81674423 -26.34501648 58.56048775 C-26.34589498 52.37084296 -26.33168806 46.18141016 -26.30578995 39.99182129 C-26.29862333 37.71902939 -26.29654689 35.44621494 -26.29990768 33.17341423 C-26.30361799 30.07298494 -26.28888988 26.97317581 -26.26940918 23.87281799 C-26.27473711 22.97155089 -26.28006503 22.0702838 -26.28555441 21.14170557 C-26.21516662 14.65657256 -24.88214856 10.52013211 -20.5625 5.5 C-13.96198242 -0.17951513 -8.3628694 -0.20083245 0 0 Z " fill="#D94244" transform="translate(66.875,-0.1875)"/>
<path d="M0 0 C2.90365755 0.31390892 4.60838706 0.67365588 6.875 2.5625 C10.02016342 4.69011055 12.27799499 4.385035 16 4 C19.1668838 2.62507196 19.1668838 2.62507196 22 1 C24.25 0.1875 24.25 0.1875 26 0 C28 2 28 2 28.1875 4.8125 C26.60632954 9.0566944 24.58514661 10.13059499 20.6015625 12.078125 C15.46232442 13.89923639 10.69225688 14.22252733 5.66015625 11.9375 C2.78245027 10.18902042 0.38198637 8.38198637 -2 6 C-1.44444444 1.44444444 -1.44444444 1.44444444 0 0 Z " fill="#47414D" transform="translate(115,75)"/>
<path d="M0 0 C2.4375 0.1875 2.4375 0.1875 3.4375 1.1875 C3.5364294 3.35230797 3.567211 5.52043785 3.5625 7.6875 C3.56507812 8.8734375 3.56765625 10.059375 3.5703125 11.28125 C3.4375 14.1875 3.4375 14.1875 2.4375 15.1875 C0 15.375 0 15.375 -2.5625 15.1875 C-4.5625 13.1875 -4.5625 13.1875 -4.828125 10.65625 C-4.82296875 9.6765625 -4.8178125 8.696875 -4.8125 7.6875 C-4.81765625 6.7078125 -4.8228125 5.728125 -4.828125 4.71875 C-4.45547235 1.16758945 -3.56822423 0.26108958 0 0 Z " fill="#49414D" transform="translate(82.5625,67.8125)"/>
<path d="M0 0 C2.4375 0.1875 2.4375 0.1875 3.4375 1.1875 C3.53650199 3.16462807 3.56720773 5.14540038 3.5625 7.125 C3.56507813 8.20652344 3.56765625 9.28804687 3.5703125 10.40234375 C3.4375 13.1875 3.4375 13.1875 2.4375 15.1875 C0.0625 15.3125 0.0625 15.3125 -2.5625 15.1875 C-4.5625 13.1875 -4.5625 13.1875 -4.828125 10.65625 C-4.82296875 9.6765625 -4.8178125 8.696875 -4.8125 7.6875 C-4.81765625 6.7078125 -4.8228125 5.728125 -4.828125 4.71875 C-4.45547235 1.16758945 -3.56822423 0.26108958 0 0 Z " fill="#48414D" transform="translate(174.5625,67.8125)"/>
</svg>
